<svg width="92" height="87" viewBox="0 0 92 87" fill="none" xmlns="http://www.w3.org/2000/svg">
<path d="M47.6168 5.83009L55.5297 30.1835C55.5469 30.2364 55.5641 30.2897 55.5813 30.3434C55.7832 30.9707 55.9982 31.6389 56.431 32.1621C56.8068 32.6163 57.2912 32.9683 57.8394 33.1853C58.4707 33.4353 59.1726 33.4333 59.8316 33.4314C59.888 33.4313 59.944 33.4311 59.9997 33.4311H85.6064C87.1298 33.4311 88.176 33.4324 88.9187 33.4938C89.4246 33.5356 89.6312 33.5984 89.6867 33.6146C89.7659 33.7115 89.8059 33.8347 89.7988 33.9596C89.7634 34.0053 89.6332 34.1776 89.2485 34.5088C88.6837 34.995 87.8381 35.611 86.6056 36.5064L65.8893 51.5577C65.8443 51.5904 65.7989 51.6232 65.7532 51.6562C65.219 52.042 64.6499 52.453 64.2861 53.0263C63.9702 53.5241 63.7852 54.0936 63.7482 54.6819C63.7055 55.3596 63.9243 56.0265 64.1297 56.6527C64.1473 56.7063 64.1648 56.7595 64.182 56.8124L72.0949 81.1658C72.5656 82.6147 72.8877 83.6101 73.0589 84.3355C73.1754 84.8295 73.1795 85.0454 73.1812 85.1032C73.1136 85.2084 73.0088 85.2846 72.8877 85.3164C72.8333 85.2969 72.6292 85.2263 72.1954 84.9628C71.5584 84.5759 70.7113 83.962 69.4788 83.0665L48.7626 68.0153C48.7176 67.9826 48.6723 67.9495 48.6268 67.9162C48.0948 67.5274 47.528 67.1132 46.8704 66.9443C46.2994 66.7977 45.7006 66.7977 45.1296 66.9443C44.472 67.1132 43.9052 67.5274 43.3732 67.9162C43.3277 67.9495 43.2824 67.9826 43.2374 68.0153L22.5212 83.0665C21.2887 83.9619 20.4416 84.5759 19.8046 84.9628C19.3707 85.2263 19.1667 85.2969 19.1123 85.3164C18.9912 85.2846 18.8864 85.2084 18.8188 85.1031C18.8205 85.0454 18.8246 84.8295 18.9411 84.3355C19.1123 83.6101 19.4344 82.6147 19.9051 81.1658L27.818 56.8124C27.8352 56.7595 27.8527 56.7063 27.8703 56.6528C28.0757 56.0266 28.2945 55.3596 28.2518 54.6819C28.2148 54.0936 28.0298 53.5241 27.7139 53.0263C27.3501 52.453 26.781 52.042 26.2468 51.6562C26.2011 51.6232 26.1557 51.5904 26.1107 51.5577L5.3944 36.5064C4.1619 35.611 3.31629 34.995 2.75147 34.5088C2.36682 34.1776 2.23659 34.0054 2.20124 33.9596C2.19409 33.8347 2.23413 33.7115 2.31334 33.6146C2.36882 33.5984 2.57543 33.5356 3.08126 33.4938C3.82403 33.4324 4.8702 33.4311 6.3936 33.4311H32.0003C32.056 33.4311 32.112 33.4313 32.1684 33.4314C32.8274 33.4333 33.5293 33.4353 34.1606 33.1853C34.7088 32.9683 35.1932 32.6163 35.569 32.1621C36.0018 31.6389 36.2168 30.9708 36.4187 30.3434C36.4359 30.2898 36.4531 30.2364 36.4703 30.1835L44.3832 5.8301C44.854 4.38122 45.1785 3.38663 45.4664 2.69919C45.6625 2.23103 45.7861 2.05395 45.8186 2.00619C45.9352 1.96079 46.0648 1.96079 46.1814 2.00619C46.2139 2.05394 46.3375 2.23103 46.5336 2.69918C46.8215 3.38663 47.146 4.38122 47.6168 5.83009Z" fill="#FCC331" stroke="black" stroke-width="3"/>
</svg>
