<svg width="104" height="104" viewBox="0 0 104 104" fill="none" xmlns="http://www.w3.org/2000/svg">
<path d="M53.6168 9.83009L61.5297 34.1835C61.5469 34.2364 61.5641 34.2897 61.5813 34.3434C61.7832 34.9707 61.9982 35.6389 62.431 36.1621C62.8068 36.6163 63.2912 36.9683 63.8394 37.1853C64.4707 37.4353 65.1726 37.4333 65.8316 37.4314C65.888 37.4313 65.944 37.4311 65.9997 37.4311H91.6064C93.1298 37.4311 94.176 37.4324 94.9187 37.4938C95.4246 37.5356 95.6312 37.5984 95.6867 37.6146C95.7659 37.7115 95.8059 37.8347 95.7988 37.9596C95.7634 38.0053 95.6332 38.1776 95.2485 38.5088C94.6837 38.995 93.8381 39.611 92.6056 40.5064L71.8893 55.5577C71.8443 55.5904 71.7989 55.6232 71.7532 55.6562C71.219 56.042 70.6499 56.453 70.2861 57.0263C69.9702 57.5241 69.7852 58.0936 69.7482 58.6819C69.7055 59.3596 69.9243 60.0265 70.1297 60.6527C70.1473 60.7063 70.1648 60.7595 70.182 60.8124L78.0949 85.1658C78.5656 86.6147 78.8877 87.6101 79.0589 88.3355C79.1754 88.8295 79.1795 89.0454 79.1812 89.1032C79.1136 89.2084 79.0088 89.2846 78.8877 89.3164C78.8333 89.2969 78.6292 89.2263 78.1954 88.9628C77.5584 88.5759 76.7113 87.962 75.4788 87.0665L54.7626 72.0153C54.7176 71.9826 54.6723 71.9495 54.6268 71.9162C54.0948 71.5274 53.528 71.1132 52.8704 70.9443C52.2994 70.7977 51.7006 70.7977 51.1296 70.9443C50.472 71.1132 49.9052 71.5274 49.3732 71.9162C49.3277 71.9495 49.2824 71.9826 49.2374 72.0153L28.5212 87.0665C27.2887 87.9619 26.4416 88.5759 25.8046 88.9628C25.3707 89.2263 25.1667 89.2969 25.1123 89.3164C24.9912 89.2846 24.8864 89.2084 24.8188 89.1031C24.8205 89.0454 24.8246 88.8295 24.9411 88.3355C25.1123 87.6101 25.4344 86.6147 25.9051 85.1658L33.818 60.8124C33.8352 60.7595 33.8527 60.7063 33.8703 60.6528C34.0757 60.0266 34.2945 59.3596 34.2518 58.6819C34.2148 58.0936 34.0298 57.5241 33.7139 57.0263C33.3501 56.453 32.781 56.042 32.2468 55.6562C32.2011 55.6232 32.1557 55.5904 32.1107 55.5577L11.3944 40.5064C10.1619 39.611 9.31629 38.995 8.75147 38.5088C8.36682 38.1776 8.23659 38.0054 8.20124 37.9596C8.19409 37.8347 8.23413 37.7115 8.31334 37.6146C8.36882 37.5984 8.57543 37.5356 9.08126 37.4938C9.82403 37.4324 10.8702 37.4311 12.3936 37.4311H38.0003C38.056 37.4311 38.112 37.4313 38.1684 37.4314C38.8274 37.4333 39.5293 37.4353 40.1606 37.1853C40.7088 36.9683 41.1932 36.6163 41.569 36.1621C42.0018 35.6389 42.2168 34.9708 42.4187 34.3434C42.4359 34.2898 42.4531 34.2364 42.4703 34.1835L50.3832 9.8301C50.854 8.38122 51.1785 7.38663 51.4664 6.69919C51.6625 6.23103 51.7861 6.05395 51.8186 6.00619C51.9352 5.96079 52.0648 5.96079 52.1814 6.00619C52.2139 6.05394 52.3375 6.23103 52.5336 6.69918C52.8215 7.38663 53.146 8.38122 53.6168 9.83009Z" fill="white" stroke="black" stroke-width="3"/>
</svg>
